<svg id="Component_2_1" data-name="Component 2 – 1" xmlns="http://www.w3.org/2000/svg" width="216" height="59" viewBox="0 0 216 59">
  <path id="Subtraction_3" data-name="Subtraction 3" d="M186.5,59H29.5A29.508,29.508,0,0,1,18.017,2.318,29.316,29.316,0,0,1,29.5,0h157a29.508,29.508,0,0,1,11.483,56.682A29.315,29.315,0,0,1,186.5,59ZM74.532,33.288a6.379,6.379,0,0,0,.6,2.748,5.413,5.413,0,0,0,1.535,1.908,6.483,6.483,0,0,0,2.256,1.1,10.308,10.308,0,0,0,2.76.36,10.508,10.508,0,0,0,2.5-.3,6.753,6.753,0,0,0,2.184-.949,5.016,5.016,0,0,0,1.548-1.668,4.872,4.872,0,0,0,.588-2.46,4.634,4.634,0,0,0-.2-1.345,4.342,4.342,0,0,0-.624-1.26,4.652,4.652,0,0,0-1.044-1.044,5.044,5.044,0,0,0-1.464-.72c-.226-.064-.6-.165-1.116-.3l-1.6-.42c-.651-.173-1.093-.291-1.476-.4-.469-.128-.7-.189-.756-.2a3.677,3.677,0,0,1-1.476-.78,2.09,2.09,0,0,1-.264-2.508,2.223,2.223,0,0,1,.756-.684,3.452,3.452,0,0,1,1.008-.36,5.647,5.647,0,0,1,1.08-.108,4.5,4.5,0,0,1,2.568.684,2.905,2.905,0,0,1,1.128,2.34h3a4.955,4.955,0,0,0-1.957-4.08A6.277,6.277,0,0,0,83.975,21.8a9,9,0,0,0-2.532-.348,8.879,8.879,0,0,0-2.28.3,6.3,6.3,0,0,0-2.016.923,4.835,4.835,0,0,0-1.428,1.572,4.478,4.478,0,0,0-.54,2.244,4.945,4.945,0,0,0,.18,1.32,3.681,3.681,0,0,0,.612,1.224,4.4,4.4,0,0,0,1.164,1.044,6.437,6.437,0,0,0,1.836.756c1.176.318,2.181.581,2.988.78a20.518,20.518,0,0,1,2.124.635,2.557,2.557,0,0,1,.972.661,2.054,2.054,0,0,1,.445,1.452,2.472,2.472,0,0,1-.193.948,2.124,2.124,0,0,1-.624.828,3.413,3.413,0,0,1-1.128.589,5.462,5.462,0,0,1-1.68.228,6.67,6.67,0,0,1-1.692-.2,4,4,0,0,1-1.38-.648,3.039,3.039,0,0,1-.936-1.139,3.854,3.854,0,0,1-.337-1.68ZM185,31.945h4.415a4.639,4.639,0,0,1,1.692.264,2.244,2.244,0,0,1,1.044.828,3.553,3.553,0,0,1,.528,1.416,12.4,12.4,0,0,1,.144,2.029c0,.417.02.853.06,1.3a2.806,2.806,0,0,0,.4,1.224H196.5a3.631,3.631,0,0,1-.708-1.764,15.275,15.275,0,0,1-.228-2.749,4.842,4.842,0,0,0-.252-1.679,3.359,3.359,0,0,0-.636-1.093,2.46,2.46,0,0,0-.828-.612,3.062,3.062,0,0,0-.828-.239v-.049c.142-.047.371-.143.684-.288a3.3,3.3,0,0,0,.949-.707,4.477,4.477,0,0,0,.84-1.3,5,5,0,0,0,.36-2.029,4.28,4.28,0,0,0-1.416-3.407,6.377,6.377,0,0,0-4.248-1.224H182V39h3V31.946Zm-20.52-10.08V39h12.5V36.409h-9.5V31.392h8.64V28.944h-8.64V24.457h9.336V21.865Zm-17.52,0V39h12.5V36.409h-9.5V31.392h8.64V28.944h-8.64V24.457H159.3V21.865Zm-19.008,0L133.668,39H137l5.856-17.136h-3.048l-4.392,13.559h-.048l-4.3-13.559Zm-13.92,10.08h4.416a4.639,4.639,0,0,1,1.692.264,2.243,2.243,0,0,1,1.044.828,3.563,3.563,0,0,1,.528,1.416,12.494,12.494,0,0,1,.144,2.029c0,.414.02.85.059,1.3a2.819,2.819,0,0,0,.4,1.224h3.217a3.631,3.631,0,0,1-.708-1.764,15.278,15.278,0,0,1-.228-2.749,4.862,4.862,0,0,0-.252-1.679,3.371,3.371,0,0,0-.636-1.093,2.461,2.461,0,0,0-.828-.612,3.066,3.066,0,0,0-.828-.239v-.049c.14-.046.364-.14.684-.288a3.289,3.289,0,0,0,.948-.707,4.461,4.461,0,0,0,.841-1.3,5.013,5.013,0,0,0,.36-2.029,4.28,4.28,0,0,0-1.417-3.407,6.377,6.377,0,0,0-4.248-1.224h-8.184V39h3V31.946Zm-20.52-10.08V39h12.5V36.409h-9.5V31.392h8.64V28.944h-8.64V24.457h9.336V21.865Zm-35.472,0V39h12.5V36.409h-9.5V31.392h8.64V28.944h-8.64V24.457H70.38V21.865Zm-16.3,10.08h4.416a4.639,4.639,0,0,1,1.692.264,2.243,2.243,0,0,1,1.044.828,3.563,3.563,0,0,1,.528,1.416,12.494,12.494,0,0,1,.144,2.029c0,.414.02.85.059,1.3a2.819,2.819,0,0,0,.4,1.224h3.217a3.631,3.631,0,0,1-.708-1.764,15.277,15.277,0,0,1-.228-2.749,4.862,4.862,0,0,0-.252-1.679,3.371,3.371,0,0,0-.636-1.093,2.461,2.461,0,0,0-.828-.612,3.066,3.066,0,0,0-.828-.239v-.049c.14-.046.364-.14.684-.288a3.289,3.289,0,0,0,.948-.707,4.46,4.46,0,0,0,.841-1.3A5.013,5.013,0,0,0,52.6,26.5a4.28,4.28,0,0,0-1.417-3.407,6.377,6.377,0,0,0-4.248-1.224H38.748V39h3V31.946ZM20.083,22.466,20,22.48l-.042,0-.076.013-.092.016-.143.036a3.3,3.3,0,0,0-.358.1,2.539,2.539,0,0,0-.435.21,2.762,2.762,0,0,0-.813.74,2.489,2.489,0,0,0-.4.769c-.06.2-.106.408-.148.6-.024.111-.041.225-.057.335l-.011.075c-.013.086-.024.173-.035.258l-.01.075a.368.368,0,0,0,0,.053c0,.01,0,.02,0,.03l0,.076c0,.05-.006.1-.009.151,0,0-.005.009-.01.014l-.006.006c0,.009,0,.018,0,.027v.039l-.011.033c0,.022,0,.044,0,.065l0,.039,0,.04-.005.155-.005.155,0,.021a.217.217,0,0,1,.007.058c0,.044-.009.088-.014.131l-.007.057,0,.011q0,.131,0,.261v.027q0,.144,0,.288c0,.009,0,.019,0,.028s0,.02,0,.028,0,.047,0,.07,0,.049,0,.072l.006.131,0,.048c0,.013,0,.026,0,.04,0,.031,0,.062,0,.093.012.134.025.268.039.4l.014.143c.006.042.012.084.017.125l0,.02,0,.021a.36.36,0,0,1,.008.049c0,.023,0,.045.005.068a.935.935,0,0,0,.01.106c.018.1.038.205.057.3l.017.084c.01.054.02.108.03.162.024.129.048.263.08.393.069.276.15.556.22.8.04.137.085.274.129.406l.017.052c.03.086.063.174.1.263.042.1.086.208.13.309l0,0,.031.073.05.117c.051.121.1.246.161.367.082.174.166.34.249.492.12.224.224.41.338.593.136.22.288.45.451.683.123.177.257.348.383.509.112.142.225.277.336.4s.217.241.324.357l.139.151.044.044.039.04.01.011.023.023.012.011.03.031.014.014.047.046.047.046.012.012.076.077.012.011.012.01.09.083c.074.069.15.139.227.2.18.153.332.277.478.389.2.157.4.307.6.446a9.194,9.194,0,0,0,.947.586l.059.031c.191.1.388.208.585.306.145.073.3.137.445.2l.013.005c.184.077.339.141.5.2.179.066.363.126.541.184l.044.014c.146.047.3.1.445.136.214.056.432.107.637.154.048.011.1.018.145.024l.068.009.089.01.089.01.021,0,.056,0,.056,0,.112-.006H27.3l.1-.006.027,0h.137l.021,0,.076-.015c.095-.018.193-.037.289-.062l.013,0a2.351,2.351,0,0,0,.335-.108,4.093,4.093,0,0,0,.455-.233,2.265,2.265,0,0,0,.224-.157l.073-.055.084-.074.071-.062.02-.021.048-.049.046-.047.005-.006.005-.006.033-.037.019-.021.013-.021.021-.023.021-.023a.018.018,0,0,0,0-.009l.027-.031.014-.016a.015.015,0,0,0,0-.009l.012-.014,0,0,.015-.017a.018.018,0,0,0,0-.009l.009-.013.009-.013,0-.006a.028.028,0,0,1,0-.009c.026-.043.052-.086.079-.129.057-.092.116-.186.164-.283a2.566,2.566,0,0,0,.2-.6,3.211,3.211,0,0,0,.067-.49c0-.03,0-.06,0-.091V36c0-.034,0-.069,0-.1,0-.015,0-.03-.006-.045l0-.016c-.006-.02-.011-.039-.016-.058a.116.116,0,0,1,0-.015.068.068,0,0,0,0-.024.935.935,0,0,0-.208-.364,1.114,1.114,0,0,0-.414-.239l-.055-.022c-.072-.029-.146-.055-.218-.079s-.124-.043-.185-.066-.14-.056-.21-.084-.146-.06-.218-.088c-.094-.036-.19-.071-.285-.106l-.008,0h0l-.245-.09c-.053-.02-.1-.042-.156-.064s-.1-.044-.156-.064l-.186-.069c-.073-.027-.144-.053-.214-.08-.043-.017-.086-.035-.128-.053s-.1-.042-.148-.061c-.092-.035-.185-.068-.278-.1l-.009,0-.184-.067-.332-.125-.139-.053L26,33.845l-.052-.014h-.005l-.143.009-.139.009-.027.007a1.154,1.154,0,0,0-.154.046,1.036,1.036,0,0,0-.414.361,2.883,2.883,0,0,0-.428.758c-.008.02-.015.028-.025.028a.044.044,0,0,1-.023-.009l-.22-.142-.006,0c-.17-.109-.346-.222-.515-.342-.2-.143-.413-.307-.646-.5-.148-.124-.287-.258-.44-.408-.109-.107-.282-.289-.385-.4l-.053-.059c-.115-.13-.234-.263-.341-.4-.161-.211-.319-.434-.483-.68-.114-.17-.216-.349-.3-.5-.1-.177-.2-.365-.3-.575-.05-.1-.094-.209-.137-.312-.023-.055-.046-.111-.07-.166-.043-.1-.079-.189-.108-.272-.062-.176-.128-.363-.183-.552s-.1-.376-.147-.572c-.035-.157-.063-.319-.088-.472-.021-.129-.039-.261-.057-.389l-.022-.155-.015-.036c0-.015,0-.028.006-.043a.058.058,0,0,1,.043-.024.053.053,0,0,1,.028.009l.055.018.006,0h.18l.031-.006.011,0,.011,0h.1l.053-.008.113-.017.08-.011a1.641,1.641,0,0,0,.2-.036,2.211,2.211,0,0,0,.25-.09l.042-.017a.769.769,0,0,0,.379-.349.751.751,0,0,0,.1-.337c.016-.19.025-.383.034-.569,0-.085.007-.17.009-.253l0-.1.005-.052,0-.045.011-.2.005-.066c.005-.086.011-.171.015-.257v-.01c.005-.122.011-.244.015-.366l.011-.311s0,0,.006-.008l0,0,0-.051c0-.04.005-.076.007-.112q0-.1.006-.2c0-.065,0-.127.006-.19,0-.117.007-.234.012-.351,0,0,0-.007.008-.011,0-.032.005-.06.006-.089,0-.056,0-.111,0-.167,0-.034,0-.068,0-.1v-.007c0-.1,0-.208,0-.311a.683.683,0,0,0-.149-.36.891.891,0,0,0-.431-.305,3.275,3.275,0,0,0-.347-.113,2.027,2.027,0,0,0-.515-.081h-.041l-.189-.007-.182-.006Zm169.84,7.2H185V24.313h4.872a6.4,6.4,0,0,1,1.116.1,2.454,2.454,0,0,1,.96.384,1.949,1.949,0,0,1,.66.8,3.19,3.19,0,0,1,.24,1.332,2.662,2.662,0,0,1-.744,2.052A3.134,3.134,0,0,1,189.923,29.664Zm-70.968,0h-4.92V24.313h4.873a6.4,6.4,0,0,1,1.116.1,2.452,2.452,0,0,1,.959.384,1.949,1.949,0,0,1,.661.8,3.2,3.2,0,0,1,.239,1.332,2.662,2.662,0,0,1-.743,2.052A3.134,3.134,0,0,1,118.956,29.664Zm-72.288,0h-4.92V24.313H46.62a6.4,6.4,0,0,1,1.116.1,2.452,2.452,0,0,1,.959.384,1.949,1.949,0,0,1,.661.8,3.2,3.2,0,0,1,.239,1.332,2.662,2.662,0,0,1-.743,2.052A3.134,3.134,0,0,1,46.668,29.664Z" transform="translate(0 0)" fill="#fff"/>
</svg>
