<svg xmlns="http://www.w3.org/2000/svg" width="1024.088" height="1355.851" viewBox="0 0 1024.088 1355.851">
  <path id="Union_1" data-name="Union 1" d="M264.487,1150.274a335.073,335.073,0,0,1-72.177-38.033c-43.528-31.3-72.864-70.771-5.177-96.291,14.655-5.545,29.477-10.311,44.417-14.57-47.72-70.25-95-146.805-139.281-216.714-15.7-26.489-39.374-61.354-54.475-87.841-17.6-30.672-33.224-63.3-37.173-99.273-6.28-70.083,35.671-96.943,95.321-117.105,64.226-21.755,129.2-41.118,194.41-59.552-4.65-4.316-9.157-8.757-13.425-13.407-49.424-49.579-74.709-118.144-81.544-186.9C181.992,104.628,231.687.474,361.5,3.165c56.992,1.791,115.921,27.314,154.88,69.689,38.792-51.037,97.708-83.9,164.363-69.421,80.51,17.846,155.821,104.528,152.1,188.55-.965,30.006-21.254,54.688-37.191,77.744-23.626,34.126-40.045,72.919-53.433,112.246a840.331,840.331,0,0,1,147.133,14.9c34.019,7.061,70.7,14.2,99.862,35.493a83.4,83.4,0,0,1,26.641,35.043c13.482,32.252,10.728,85.884-30.777,94.6l-.542.093c2.838,12.573,1.293,26.18,0,40.165a755.6,755.6,0,0,0-3.115,82.586c.055,41.989,5.874,82.038,13.254,123.34,6.522,43.016-4.15,87.171-22.279,126.118-30.749,63.843-79.253,121.355-142.34,155.066-21.313,10.967-48.755,19.208-72.6,12.1-3.947,7.768-8.27,15.329-12.888,22.646,4.557-7.335,8.783-14.927,12.614-22.729a56.156,56.156,0,0,1-14.116-6.507c-36.7-24.081-50.283-74.209-56.9-114.7a374.411,374.411,0,0,1-3.745-62.419c-.872.282-1.753.561-2.634.832-53.875,16.933-109.236,23.775-164.308,34.113-54.814,9.6-109.265,20.421-163.726,31.955q-2.839.631-5.684,1.252-17.127,51.662-37.024,102.4Q320.436,1104.2,332,1119.853c11.88,15.672,24.08,31.106,36.867,46.057a149.844,149.844,0,0,0,21.485-1.552c65.427-8.926,81.1-68.195,77.456-125.576,8.343,87.122-29.719,128.8-94.55,132.216q12.123,13.919,25.036,27.18l-1.548,1.688q-16.22-13.684-31.2-28.643c-17.728.116-37.272-2.436-58.289-7.523q-13.117-3.264-25.99-7.473c-28.876,67.558-60.777,133.826-94.6,198.837C212.751,1286.722,239.222,1218.644,264.487,1150.274Zm95.6,15.457a786.568,786.568,0,0,1-56.11-64.524q-9.784,24.587-20.13,48.956C309.593,1159.044,335.954,1164.678,360.088,1165.732Zm-169.343-140.76c-26.886,10.756-48.569,23.588-23.609,53.29,22.67,25.719,59.653,49.325,99.738,65.543q11.353-30.825,22.326-61.758c-9.512-12.567-18.814-25.276-28-38q-11.766-16.515-23.528-33.7C221.789,1014.6,206.1,1019.377,190.745,1024.972Zm724.1-28.3c33.337-42.22,59.486-92.367,64.684-146.418,3.06-27.46-3.882-53.5-8.149-80.807-8.552-55.832-8.405-112.442-4.181-168.539.662-12.266,2.786-26.538-.882-37.613-22.523-.734-44.041-9.062-65.074-16.6-7.362-2.815-14.664-5.776-21.934-8.831-5.28.613-10.355,1.257-15.083,1.785-33.915,4.554-72.84,13.06-107.162,7.58-42.208-8.208-57.3-35.117-58.779-67.782-36.174,4.783-49.445,35.6-43.3,88.268,8.824,78.018,26.192,155.1,52.832,228.92,9.315-21.064,22.13-40.767,36.09-58.724,10.462-12.4,43.928-61.093,61.514-39.163,14.348,24.758.655,76.195-8.393,101.772-11.694,32.68-29.179,60.784-53.105,82.225q.928,1.927,1.864,3.85c17.082,37.7,35.691,77.135,35.851,119.423.371,28.109-6.38,55.676-17.523,81.365C815.389,1100.135,888.2,1031.846,914.841,996.674ZM700.685,977.989c4.2,26.743,11.461,53.466,24.841,76.22,5.684,9.635,12.688,18.633,21.678,25.277a48.079,48.079,0,0,0,16.393,7.773c14.7-35.408,20.91-74.253,12.873-112.106-7.73-31.517-21.063-61-34.941-90.308a167.058,167.058,0,0,1-44.444,27.483A372.716,372.716,0,0,0,700.685,977.989ZM294.3,1067.544Q307.57,1029.633,320,991.5c-22.55,4.757-45.2,9.489-67.562,15.041Q273.088,1037.328,294.3,1067.544Zm-45.072-615.5c-49.116,14.685-98.551,29.514-146.966,46.226C79.176,506.9,55.469,514.8,37.9,531.706-3,576.381,27.172,642.718,52.7,688.271,115.512,790.8,178.831,896.112,246.293,997.342c25.678-6.765,51.636-12.3,77.615-17.948q1.753-5.474,3.484-10.949c38.684-130.894,116.895-374.028,24.4-490.894-13.076-15.569-29.178-28.675-44.96-42.126Q277.974,443.571,249.233,452.041Zm109.441,19.7c80.71,95.116,52.592,266.784,26.51,379.209q-15.292,61.981-35.066,122.662c54.176-11.779,108.655-22.909,163.233-32.776,27.4-5.021,54.808-9.859,82.074-15.062,28.964-5.9,59.631-11.486,87.638-22.158A334.652,334.652,0,0,1,701.752,812q1.656-4.788,3.569-9.493c-28.962-75.193-46.19-154.3-56.617-234.163-5.364-43.309.514-90.232,49.466-96.264.36-25.418,8-53.608,17-78.878-11.611-.05-23.232-.059-34.865-.126-42.95-.555-84.237-15.43-121.234-36.687A203.16,203.16,0,0,1,511,319.734a310.83,310.83,0,0,1-64.478,65.44c-29.3,21.051-64.685,28.863-98.293,38.671q-16.522,4.595-32.993,9.215C330.3,445.124,345.515,457.043,358.673,471.74ZM697.94,897.307A151.777,151.777,0,0,0,735.7,872.577c-7.885-16.578-15.72-33.183-22.588-50.15A305.037,305.037,0,0,0,697.94,897.307Zm40.129-26.939q2.742-2.619,5.362-5.431c27.405-29.367,44.046-68.763,51.42-108.18,2.339-13.209,3.71-26.9,2.367-39.509-.629-3.906-1.021-7.42-2.955-10.3-4.711,1.219-8.922,5.435-12.75,8.76-18.83,18.563-35.751,41.8-49.549,64.382a254.072,254.072,0,0,0-16.739,36.391Q725.776,843.764,738.069,870.368ZM904.493,538.1c15.535,5.251,36.128,13.179,55.509,15.207-13.886-16.415-37.681-18.641-60.928-17.271Q901.779,537.079,904.493,538.1Zm64.914-1.716a48.968,48.968,0,0,1,11.968,16.179,40.119,40.119,0,0,0,17.687-8.374C1013,530.624,1014.448,509,1011.426,490.3c-3.689-26.678-21.232-48.882-45.567-59.836-36.716-17.311-79.236-23.256-119.471-29.626-35.861-5.5-71.852-6.991-107.964-7.452q-4.221,12.95-8.108,25.876c-5.988,21.584-8.721,39.005-8.742,53.005C758.68,476,793.6,492.2,827.636,506c10.042,4.271,20.038,8.628,30.035,12.932,14.784-1.689,29.583-3.009,43.7-3.009C928,515.926,952.212,520.618,969.407,536.383ZM840.555,521.006l.144-.018c-30.8-13.7-61.6-27.261-93.961-36.3a172.356,172.356,0,0,0-24.9-5.067C726.051,535.873,781,528.441,840.555,521.006ZM266.052,39.333c-73.378,49.668-74.29,152.684-56.67,231.15,10.8,50.007,35.019,97.018,71.91,132.72,5.287,5.5,10.858,10.634,16.582,15.571q22.691-6.388,45.411-12.655c31.888-9.311,65.6-16.452,92.7-35.789a294.252,294.252,0,0,0,62.956-64.659c-18.615-24.329-30.023-53.522-30.575-86.962-1.788-44.763,12.582-92.558,38.273-132.015-37.324-43.8-97.545-70.959-155.48-70.961C320.98,15.732,291.429,23.1,266.052,39.333ZM564.939,346.219c23.485,13.3,48.93,24.743,75.368,30.723,25.885,5.52,52.49,5.175,79.008,5.05,3.97-10.383,8.026-20.075,11.7-28.632,8.042-19.488,17.144-39.226,27.768-57.473a416.229,416.229,0,0,1,23.521-35.564c15.671-21.829,34.451-41.9,35.978-69.434,2.739-53.683-29.933-104.4-69.524-138.4-81.075-67.671-171.02-42.118-224.23,29.84,16.885,21.033,29.013,45.672,34.117,73.208,8.576,53.283-9.755,108.157-40.739,154.324C530.364,323.383,546,335.572,564.939,346.219ZM494.173,138.857c-21.478,59.4-18.7,113.434,11.845,156.377,26.693-41.337,42.3-89.586,35.476-136.789-4.035-22.566-13.49-43.3-26.819-61.573A235.9,235.9,0,0,0,494.173,138.857Z" transform="translate(0.478 0.556)" fill="#161616" stroke="rgba(0,0,0,0)" stroke-miterlimit="10" stroke-width="1"/>
</svg>
