<svg xmlns="http://www.w3.org/2000/svg" xmlns:xlink="http://www.w3.org/1999/xlink" width="378.169" height="336.813" viewBox="0 0 378.169 336.813">
  <defs>
    <clipPath id="clip-path">
      <rect id="Rectangle_1" data-name="Rectangle 1" width="378.169" height="336.813" fill="none"/>
    </clipPath>
  </defs>
  <g id="Group_2" data-name="Group 2" transform="translate(0 0.003)">
    <g id="Group_1" data-name="Group 1" transform="translate(0 -0.003)" clip-path="url(#clip-path)">
      <path id="Path_1" data-name="Path 1" d="M0,1051.66H19.751a21.387,21.387,0,0,1,7.39,1.1,13.1,13.1,0,0,1,4.765,2.9,10.658,10.658,0,0,1,2.59,4.109,14.29,14.29,0,0,1,.794,4.661,10.5,10.5,0,0,1-.69,3.8,9.824,9.824,0,0,1-1.968,3.177,11.338,11.338,0,0,1-6.941,3.522l.138.138a8.008,8.008,0,0,1,2.279.414,12.565,12.565,0,0,1,3.764,1.83,13.1,13.1,0,0,1,3.522,3.729,10.994,10.994,0,0,1,1.554,6.112A13.421,13.421,0,0,1,35.7,1093.1a12.207,12.207,0,0,1-3.487,4.316,15.5,15.5,0,0,1-5.421,2.659,25.852,25.852,0,0,1-7.044.9H0Zm19.751,22.376q6.283,0,9.392-2.8a9.422,9.422,0,0,0,3.108-7.355,9.068,9.068,0,0,0-1.036-4.524,8.565,8.565,0,0,0-2.762-2.969,11.561,11.561,0,0,0-3.971-1.623,22.473,22.473,0,0,0-4.731-.484H3.038v19.751Zm0,24.309q6.629,0,10.393-2.8t3.764-8.391a9.476,9.476,0,0,0-1.312-5.214,9.727,9.727,0,0,0-3.349-3.211,13.981,13.981,0,0,0-4.558-1.623,28.161,28.161,0,0,0-4.938-.449H3.038v21.685Z" transform="translate(0 -765.33)" fill="#efefef"/>
      <path id="Path_2" data-name="Path 2" d="M261.259,1051.66h20.58a26.893,26.893,0,0,1,6.077.656,14.309,14.309,0,0,1,4.972,2.141,10.238,10.238,0,0,1,3.349,3.9,13.379,13.379,0,0,1,1.209,6.008,12.817,12.817,0,0,1-2.8,8.391,12.222,12.222,0,0,1-7.769,4.247v.138a11.738,11.738,0,0,1,5.352,1.8,8.782,8.782,0,0,1,2.935,3.384,13.687,13.687,0,0,1,1.243,4.42,42.711,42.711,0,0,1,.276,4.834v2.832a22.664,22.664,0,0,0,.138,2.59,12.871,12.871,0,0,0,.449,2.245,5.041,5.041,0,0,0,.863,1.726h-3.384a8.963,8.963,0,0,1-1.071-4.04q-.1-2.313-.1-4.8t-.207-4.937a10.521,10.521,0,0,0-1.312-4.385,7.872,7.872,0,0,0-3.487-3.108,15.577,15.577,0,0,0-6.733-1.174H264.3v22.444h-3.039Zm20.58,24.24a18.266,18.266,0,0,0,5.007-.656,10.638,10.638,0,0,0,3.971-2.037,9.692,9.692,0,0,0,2.624-3.522,12.347,12.347,0,0,0,.967-5.11,10.04,10.04,0,0,0-1.036-4.731,9.13,9.13,0,0,0-2.762-3.211,11.363,11.363,0,0,0-4.005-1.8,20.175,20.175,0,0,0-4.765-.553H264.3V1075.9Z" transform="translate(-190.128 -765.33)" fill="#efefef"/>
      <path id="Path_3" data-name="Path 3" d="M523.312,1051.66h3.315l19.475,49.309h-3.246l-6.216-15.815H513.022l-6.284,15.815h-3.246Zm12.362,30.87-10.566-27.9h-.138l-10.98,27.9Z" transform="translate(-366.409 -765.33)" fill="#efefef"/>
      <path id="Path_4" data-name="Path 4" d="M787.422,1062.61a13.233,13.233,0,0,0-1.347-5.525,11.583,11.583,0,0,0-3.281-3.936,14.306,14.306,0,0,0-4.938-2.383,23.376,23.376,0,0,0-6.25-.794,22.547,22.547,0,0,0-4.455.483,14.105,14.105,0,0,0-4.42,1.692,10.027,10.027,0,0,0-3.349,3.246,9.191,9.191,0,0,0-1.312,5.076,7.649,7.649,0,0,0,1.45,4.834,10.551,10.551,0,0,0,3.8,3,24.959,24.959,0,0,0,5.386,1.83q3.038.691,6.146,1.312,3.176.621,6.181,1.485a21.223,21.223,0,0,1,5.387,2.348,11.622,11.622,0,0,1,3.833,3.868,11.311,11.311,0,0,1,1.451,5.974,11.926,11.926,0,0,1-1.658,6.491,14,14,0,0,1-4.178,4.282,17.353,17.353,0,0,1-5.594,2.383,25.714,25.714,0,0,1-5.9.725,34.1,34.1,0,0,1-8.149-.932,18.243,18.243,0,0,1-6.63-3.038,14.666,14.666,0,0,1-4.454-5.421,17.648,17.648,0,0,1-1.554-8.08h3.039a13.788,13.788,0,0,0,1.174,6.871,12.4,12.4,0,0,0,3.833,4.592,15.876,15.876,0,0,0,5.767,2.59,29.826,29.826,0,0,0,6.975.794,22.122,22.122,0,0,0,4.731-.552,14.579,14.579,0,0,0,4.627-1.865,11.446,11.446,0,0,0,3.522-3.453,9.573,9.573,0,0,0,1.415-5.387,8.34,8.34,0,0,0-1.45-5.076,10.65,10.65,0,0,0-3.833-3.177,24.722,24.722,0,0,0-5.387-1.934q-3-.725-6.181-1.347-3.108-.621-6.146-1.45a21.123,21.123,0,0,1-5.387-2.244,11.544,11.544,0,0,1-3.8-3.661,10.447,10.447,0,0,1-1.45-5.766,11.7,11.7,0,0,1,1.485-6.043,12.146,12.146,0,0,1,3.867-4.074,17.165,17.165,0,0,1,5.352-2.279,24.682,24.682,0,0,1,5.87-.725,28.859,28.859,0,0,1,7.217.863,17.2,17.2,0,0,1,5.87,2.693,13.473,13.473,0,0,1,4.04,4.73,16.749,16.749,0,0,1,1.727,6.975Z" transform="translate(-548.407 -762.192)" fill="#efefef"/>
      <path id="Path_5" data-name="Path 5" d="M1027.88,1062.61a13.231,13.231,0,0,0-1.347-5.525,11.58,11.58,0,0,0-3.28-3.936,14.307,14.307,0,0,0-4.938-2.383,23.376,23.376,0,0,0-6.25-.794,22.541,22.541,0,0,0-4.454.483,14.105,14.105,0,0,0-4.42,1.692,10.027,10.027,0,0,0-3.349,3.246,9.194,9.194,0,0,0-1.312,5.076,7.648,7.648,0,0,0,1.45,4.834,10.554,10.554,0,0,0,3.8,3,24.967,24.967,0,0,0,5.387,1.83q3.038.691,6.146,1.312,3.176.621,6.181,1.485a21.225,21.225,0,0,1,5.387,2.348,11.619,11.619,0,0,1,3.832,3.868,11.308,11.308,0,0,1,1.451,5.974,11.927,11.927,0,0,1-1.657,6.491,14,14,0,0,1-4.178,4.282,17.354,17.354,0,0,1-5.594,2.383,25.716,25.716,0,0,1-5.9.725,34.1,34.1,0,0,1-8.149-.932,18.243,18.243,0,0,1-6.63-3.038,14.665,14.665,0,0,1-4.455-5.421,17.648,17.648,0,0,1-1.554-8.08h3.039a13.791,13.791,0,0,0,1.174,6.871,12.394,12.394,0,0,0,3.833,4.592,15.875,15.875,0,0,0,5.766,2.59,29.829,29.829,0,0,0,6.975.794,22.123,22.123,0,0,0,4.731-.552,14.579,14.579,0,0,0,4.627-1.865,11.449,11.449,0,0,0,3.522-3.453,9.571,9.571,0,0,0,1.416-5.387,8.341,8.341,0,0,0-1.45-5.076,10.646,10.646,0,0,0-3.833-3.177,24.723,24.723,0,0,0-5.387-1.934q-3-.725-6.181-1.347-3.107-.621-6.146-1.45a21.123,21.123,0,0,1-5.387-2.244,11.543,11.543,0,0,1-3.8-3.661,10.445,10.445,0,0,1-1.45-5.766,11.7,11.7,0,0,1,1.485-6.043,12.149,12.149,0,0,1,3.868-4.074,17.162,17.162,0,0,1,5.352-2.279,24.683,24.683,0,0,1,5.87-.725,28.858,28.858,0,0,1,7.217.863,17.2,17.2,0,0,1,5.87,2.693,13.471,13.471,0,0,1,4.04,4.73,16.744,16.744,0,0,1,1.727,6.975Z" transform="translate(-723.397 -762.192)" fill="#efefef"/>
      <path id="Path_6" data-name="Path 6" d="M1252.3,1051.66h3.315l19.475,49.309h-3.246l-6.215-15.815h-23.619l-6.284,15.815h-3.246Zm12.362,30.87-10.567-27.9h-.138l-10.981,27.9Z" transform="translate(-896.919 -765.33)" fill="#efefef"/>
      <path id="Path_7" data-name="Path 7" d="M478.311,929.74v4.225h.032a2.014,2.014,0,0,1,1.044-.989,3.9,3.9,0,0,1,1.567-.309,3.688,3.688,0,0,1,1.654.348,3.367,3.367,0,0,1,1.171.941,4.164,4.164,0,0,1,.7,1.369,5.6,5.6,0,0,1,.237,1.646,5.775,5.775,0,0,1-.23,1.646,3.879,3.879,0,0,1-.7,1.353,3.284,3.284,0,0,1-1.171.91,3.8,3.8,0,0,1-1.638.332,4.076,4.076,0,0,1-.673-.063,3.738,3.738,0,0,1-.736-.206,2.858,2.858,0,0,1-.689-.388,2.157,2.157,0,0,1-.546-.609h-.032v1.092h-1.345v-11.3Zm4.834,6.021a3.016,3.016,0,0,0-.459-.973,2.248,2.248,0,0,0-.791-.68,2.4,2.4,0,0,0-1.132-.253,2.22,2.22,0,0,0-1.93.973,2.951,2.951,0,0,0-.435.989,4.795,4.795,0,0,0,.008,2.287,2.875,2.875,0,0,0,.451.989,2.309,2.309,0,0,0,.8.689,2.5,2.5,0,0,0,1.187.261,2.3,2.3,0,0,0,1.163-.269,2.162,2.162,0,0,0,.752-.712,3.106,3.106,0,0,0,.411-1.013,5.394,5.394,0,0,0,.127-1.171,4.181,4.181,0,0,0-.15-1.116" transform="translate(-347.105 -676.605)" fill="#efefef"/>
      <path id="Path_8" data-name="Path 8" d="M535.6,940.677V942.4h.032a3.642,3.642,0,0,1,1.2-1.472,3.022,3.022,0,0,1,1.8-.443v1.424a3.807,3.807,0,0,0-1.377.222,2.172,2.172,0,0,0-.918.648,2.681,2.681,0,0,0-.506,1.037,5.587,5.587,0,0,0-.158,1.4v3.64H534.33v-8.181Z" transform="translate(-388.851 -684.424)" fill="#efefef"/>
      <path id="Path_9" data-name="Path 9" d="M583.17,948.83a1.906,1.906,0,0,1-.965.206,1.158,1.158,0,0,1-.831-.293,1.273,1.273,0,0,1-.309-.958,3.221,3.221,0,0,1-1.29.958,4.455,4.455,0,0,1-2.643.166,2.443,2.443,0,0,1-.862-.4,1.894,1.894,0,0,1-.578-.7,2.368,2.368,0,0,1-.214-1.052,2.4,2.4,0,0,1,.237-1.139,2.074,2.074,0,0,1,.625-.72,2.871,2.871,0,0,1,.886-.419q.5-.142,1.021-.237.554-.111,1.052-.166a5.79,5.79,0,0,0,.878-.158,1.463,1.463,0,0,0,.6-.3.734.734,0,0,0,.222-.578,1.345,1.345,0,0,0-.166-.712,1.14,1.14,0,0,0-.427-.411,1.736,1.736,0,0,0-.585-.19,4.389,4.389,0,0,0-.641-.048,2.844,2.844,0,0,0-1.424.324,1.378,1.378,0,0,0-.617,1.227H575.8a2.9,2.9,0,0,1,.316-1.282,2.4,2.4,0,0,1,.76-.847,3.188,3.188,0,0,1,1.084-.467,5.721,5.721,0,0,1,1.306-.143,7.7,7.7,0,0,1,1.1.079,2.88,2.88,0,0,1,.989.324,1.9,1.9,0,0,1,.712.687,2.195,2.195,0,0,1,.269,1.152v4.2a3.105,3.105,0,0,0,.056.695q.055.221.372.221a1.621,1.621,0,0,0,.412-.063Zm-2.184-4.193a1.673,1.673,0,0,1-.665.276q-.412.087-.862.142t-.91.126a3.357,3.357,0,0,0-.823.229,1.491,1.491,0,0,0-.593.449,1.252,1.252,0,0,0-.229.795,1.084,1.084,0,0,0,.135.559,1.111,1.111,0,0,0,.348.37,1.469,1.469,0,0,0,.5.2,2.766,2.766,0,0,0,.6.063,3.2,3.2,0,0,0,1.139-.181,2.4,2.4,0,0,0,.776-.457,1.808,1.808,0,0,0,.443-.6,1.506,1.506,0,0,0,.142-.606Z" transform="translate(-418.797 -684.429)" fill="#efefef"/>
      <path id="Path_10" data-name="Path 10" d="M631.2,947.035a1.43,1.43,0,0,0,.5.491,2.231,2.231,0,0,0,.7.261,3.977,3.977,0,0,0,.8.079,4.927,4.927,0,0,0,.665-.048,2.43,2.43,0,0,0,.641-.174,1.2,1.2,0,0,0,.483-.372.992.992,0,0,0,.19-.625.9.9,0,0,0-.4-.791,3.377,3.377,0,0,0-.989-.435q-.593-.166-1.289-.3a6.665,6.665,0,0,1-1.29-.38,2.663,2.663,0,0,1-.989-.688,1.789,1.789,0,0,1-.4-1.234,1.96,1.96,0,0,1,.277-1.06,2.26,2.26,0,0,1,.712-.72,3.272,3.272,0,0,1,.981-.412,4.538,4.538,0,0,1,1.084-.135,6.454,6.454,0,0,1,1.282.119,2.963,2.963,0,0,1,1.036.411,2.131,2.131,0,0,1,.72.791,3.007,3.007,0,0,1,.316,1.242h-1.345a1.367,1.367,0,0,0-.206-.657,1.347,1.347,0,0,0-.443-.419,2.014,2.014,0,0,0-.594-.23,3.044,3.044,0,0,0-.657-.071,4,4,0,0,0-.609.048,2.056,2.056,0,0,0-.562.166,1.135,1.135,0,0,0-.412.317.8.8,0,0,0-.158.514.756.756,0,0,0,.245.577,1.951,1.951,0,0,0,.625.38,5.5,5.5,0,0,0,.854.253q.475.1.95.214a10.1,10.1,0,0,1,.989.269,3.23,3.23,0,0,1,.855.419,2.052,2.052,0,0,1,.6.657,1.93,1.93,0,0,1,.229.981,2.279,2.279,0,0,1-.308,1.234,2.408,2.408,0,0,1-.807.791,3.369,3.369,0,0,1-1.123.419,6.632,6.632,0,0,1-1.242.119,5.753,5.753,0,0,1-1.3-.143,3.181,3.181,0,0,1-1.092-.467,2.375,2.375,0,0,1-.759-.854,2.956,2.956,0,0,1-.317-1.29h1.345a1.513,1.513,0,0,0,.206.752" transform="translate(-458.216 -684.429)" fill="#efefef"/>
      <path id="Path_11" data-name="Path 11" d="M683.506,947.035a1.433,1.433,0,0,0,.5.491,2.233,2.233,0,0,0,.7.261,3.973,3.973,0,0,0,.8.079,4.936,4.936,0,0,0,.665-.048,2.432,2.432,0,0,0,.641-.174,1.2,1.2,0,0,0,.483-.372.993.993,0,0,0,.19-.625.9.9,0,0,0-.4-.791,3.383,3.383,0,0,0-.989-.435q-.593-.166-1.289-.3a6.66,6.66,0,0,1-1.29-.38,2.659,2.659,0,0,1-.989-.688,1.787,1.787,0,0,1-.4-1.234,1.96,1.96,0,0,1,.277-1.06,2.261,2.261,0,0,1,.712-.72,3.273,3.273,0,0,1,.981-.412,4.541,4.541,0,0,1,1.084-.135,6.45,6.45,0,0,1,1.282.119,2.964,2.964,0,0,1,1.037.411,2.134,2.134,0,0,1,.72.791,3,3,0,0,1,.316,1.242h-1.345a1.366,1.366,0,0,0-.206-.657,1.347,1.347,0,0,0-.443-.419,2.017,2.017,0,0,0-.593-.23,3.044,3.044,0,0,0-.657-.071,4.01,4.01,0,0,0-.609.048,2.056,2.056,0,0,0-.561.166,1.13,1.13,0,0,0-.412.317.8.8,0,0,0-.158.514.756.756,0,0,0,.245.577,1.951,1.951,0,0,0,.625.38,5.514,5.514,0,0,0,.855.253q.475.1.949.214a10.13,10.13,0,0,1,.989.269,3.233,3.233,0,0,1,.855.419,2.058,2.058,0,0,1,.6.657,1.933,1.933,0,0,1,.229.981,2.281,2.281,0,0,1-.308,1.234,2.41,2.41,0,0,1-.807.791,3.369,3.369,0,0,1-1.123.419,6.633,6.633,0,0,1-1.242.119,5.748,5.748,0,0,1-1.3-.143,3.178,3.178,0,0,1-1.092-.467,2.376,2.376,0,0,1-.76-.854,2.961,2.961,0,0,1-.316-1.29H683.3a1.513,1.513,0,0,0,.206.752" transform="translate(-496.283 -684.429)" fill="#efefef"/>
      <path id="Path_12" data-name="Path 12" d="M740.789,948.341a3.714,3.714,0,0,1-2.31.7,4.2,4.2,0,0,1-1.7-.317,3.347,3.347,0,0,1-1.21-.886,3.759,3.759,0,0,1-.736-1.361,6.534,6.534,0,0,1-.277-1.725,4.929,4.929,0,0,1,.285-1.709,4.088,4.088,0,0,1,.8-1.345,3.622,3.622,0,0,1,1.219-.886,3.714,3.714,0,0,1,1.543-.317,3.357,3.357,0,0,1,1.812.451,3.587,3.587,0,0,1,1.155,1.147,4.542,4.542,0,0,1,.6,1.519,6.516,6.516,0,0,1,.134,1.567h-6.124a3.252,3.252,0,0,0,.127,1.021,2.308,2.308,0,0,0,.459.854,2.259,2.259,0,0,0,.807.593,2.784,2.784,0,0,0,1.155.222,2.329,2.329,0,0,0,1.4-.4,1.915,1.915,0,0,0,.72-1.2h1.329a3.27,3.27,0,0,1-1.187,2.073m-.324-5.254a2.311,2.311,0,0,0-.491-.736,2.335,2.335,0,0,0-.728-.491,2.31,2.31,0,0,0-.926-.182,2.349,2.349,0,0,0-.941.182,2.18,2.18,0,0,0-.72.5,2.392,2.392,0,0,0-.475.736,2.806,2.806,0,0,0-.206.894h4.7a2.767,2.767,0,0,0-.214-.9" transform="translate(-534.562 -684.429)" fill="#efefef"/>
      <path id="Path_13" data-name="Path 13" d="M791.731,940.677V942.4h.032a3.639,3.639,0,0,1,1.2-1.472,3.022,3.022,0,0,1,1.8-.443v1.424a3.805,3.805,0,0,0-1.377.222,2.173,2.173,0,0,0-.918.648,2.689,2.689,0,0,0-.506,1.037,5.59,5.59,0,0,0-.158,1.4v3.64h-1.345v-8.181Z" transform="translate(-575.25 -684.424)" fill="#efefef"/>
      <path id="Path_14" data-name="Path 14" d="M833.532,929.74h1.345v1.646h-1.345Zm1.345,11.3h-1.345v-8.181h1.345Z" transform="translate(-606.591 -676.605)" fill="#efefef"/>
      <path id="Path_15" data-name="Path 15" d="M874,948.341a3.714,3.714,0,0,1-2.31.7,4.2,4.2,0,0,1-1.7-.317,3.348,3.348,0,0,1-1.21-.886,3.762,3.762,0,0,1-.736-1.361,6.534,6.534,0,0,1-.277-1.725,4.93,4.93,0,0,1,.285-1.709,4.086,4.086,0,0,1,.8-1.345,3.623,3.623,0,0,1,1.219-.886,3.714,3.714,0,0,1,1.543-.317,3.357,3.357,0,0,1,1.812.451,3.587,3.587,0,0,1,1.155,1.147,4.54,4.54,0,0,1,.6,1.519,6.516,6.516,0,0,1,.135,1.567h-6.124a3.253,3.253,0,0,0,.127,1.021,2.31,2.31,0,0,0,.459.854,2.26,2.26,0,0,0,.807.593,2.784,2.784,0,0,0,1.155.222,2.329,2.329,0,0,0,1.4-.4,1.914,1.914,0,0,0,.72-1.2h1.329A3.27,3.27,0,0,1,874,948.341m-.324-5.254a2.311,2.311,0,0,0-.491-.736,2.335,2.335,0,0,0-.728-.491,2.309,2.309,0,0,0-.926-.182,2.35,2.35,0,0,0-.941.182,2.179,2.179,0,0,0-.72.5,2.39,2.39,0,0,0-.475.736,2.808,2.808,0,0,0-.206.894h4.7a2.764,2.764,0,0,0-.214-.9" transform="translate(-631.503 -684.429)" fill="#efefef"/>
      <path id="Path_16" data-name="Path 16" d="M407.042,210.823c-9.22-7.779-16.624-17.459-23.653-27.19-10.065-14.128-20.152-30.539-29.477-45.261-2.74-4.622-6.871-10.706-9.506-15.328-3.071-5.352-5.8-11.045-6.486-17.323-1.1-12.229,6.224-16.916,16.633-20.434,14.237-4.823,28.685-8.971,43.16-12.97,5.564-1.625,11.447-2.871,16.176-6.245,11-8.2,20.451-22.854,18.411-36.973C428.752,9.253,401.164-2.513,384.237,8.313c-12.8,8.667-12.964,26.643-9.889,40.335A45.522,45.522,0,0,0,386.9,71.807c4.2,4.366,9.417,7.4,13.5,11.959,14.084,16.6,9.177,46.553,4.626,66.171-7.568,30.676-20.089,60-34.641,87.967,8.563-22.435,17.363-44.7,24.556-67.464,6.75-22.841,20.4-65.267,4.258-85.66-3.79-4.513-9.038-7.84-13.064-12.226C377.51,63.9,373.1,51.939,371.905,39.942,369.568,19.707,378.24,1.533,400.892,2c15.337.482,31.477,10.813,34.4,26.589,2.455,15.255-7.728,31.256-19.566,40.07-5.113,3.673-11.287,5.037-17.152,6.748-5.781,1.608-11.536,3.22-17.274,4.92-8.571,2.563-17.2,5.15-25.645,8.066-4.029,1.507-8.166,2.885-11.231,5.835-7.137,7.8-1.872,19.371,2.583,27.32,15.474,25.26,31.126,51.487,48.736,75.31a142.186,142.186,0,0,0,11.568,13.668Z" transform="translate(-245.838 -1.45)" fill="#efefef"/>
      <path id="Path_17" data-name="Path 17" d="M488.027,181.261c1.9,19.825-9.971,26.165-28.016,21.8a60.543,60.543,0,0,1-20.057-8.979c-7.6-5.461-12.714-12.349-.9-16.8,9.2-3.482,18.792-5.208,28.323-7.363,9.492-2.065,19.038-4.016,28.6-5.745,4.782-.876,9.564-1.72,14.322-2.628,9.138-1.861,19.249-3.544,25.827-10.616,4.782-5.125,7.686-12,8.973-18.877a25.157,25.157,0,0,0,.413-6.894,4.232,4.232,0,0,0-.542-1.835c-.049-.016.121.038.076.026a6.088,6.088,0,0,0-2.274,1.541,59.866,59.866,0,0,0-8.646,11.234c-5.808,10.35-7.12,22.9-5.458,34.532a37.852,37.852,0,0,0,4.335,13.3,14.622,14.622,0,0,0,3.783,4.411c8.836,6.449,24.063-7.6,29.252-14.451,5.817-7.367,10.38-16.118,11.287-25.549.534-4.792-.677-9.336-1.422-14.1a129.8,129.8,0,0,1-.73-29.41c.116-2.149.489-4.651-.162-6.587-3.011-6.427-11.942-4.758-17.807-4.1-5.918.795-12.71,2.279-18.7,1.323-16.748-3.257-9.031-23.389-4.544-33.83A82.858,82.858,0,0,1,538.8,51.629a72.611,72.611,0,0,1,4.1-6.206c2.735-3.809,6.012-7.311,6.278-12.116.478-9.368-5.223-18.217-12.132-24.15C519.647-5.371,499.9,4.722,492.628,24.227c-5.445,15.058-1.957,28.144,12.349,36.184a49.107,49.107,0,0,0,13.151,5.361c4.683,1,9.5.9,14.3.879a146.053,146.053,0,0,1,29.161,2.6c5.936,1.232,12.337,2.478,17.426,6.193a14.553,14.553,0,0,1,4.649,6.115c2.353,5.628,1.872,14.986-5.37,16.508-5.139.9-9.954-1-14.631-2.672-9.06-3.464-17.638-8.218-26.96-10.82-12.648-3.474-17.472,1.97-16.012,14.488a170.811,170.811,0,0,0,15.845,55.644c2.981,6.578,6.228,13.46,6.256,20.839.1,7.342-2.59,14.47-6.464,20.608,4.774-7.684,7.474-17,5.564-25.995-2.463-10.041-8.183-18.9-11.795-28.544-5.43-13.591-8.608-27.947-10.5-42.443-.986-7.962.206-16.624,10.07-16.9,7.472.02,14.411,3.293,21.153,6.027,4.477,1.9,8.9,3.906,13.411,5.6,4.753,1.607,12.215,4.648,16.5,1.062,2.433-2.367,2.685-6.14,2.157-9.4a13.527,13.527,0,0,0-7.951-10.441c-6.407-3.021-13.826-4.058-20.847-5.17-9.609-1.473-19.273-1.3-28.981-1.354-7.495-.1-14.7-2.692-21.155-6.4C494.9,57.14,488.3,48.907,488.125,38.161,487.348,18.721,504.034-4,525.184.6c14.049,3.114,27.19,18.24,26.542,32.9-.168,5.236-3.709,9.543-6.49,13.566-5.425,7.835-8.672,17.081-11.4,26.093-9.549,34.418,28.317,8.149,41.721,20.438,3.555,3.237,3.031,7.268,2.642,11.5a131.855,131.855,0,0,0-.543,14.411,121.907,121.907,0,0,0,2.313,21.522c1.138,7.506-.724,15.211-3.888,22.007-5.366,11.141-13.829,21.176-24.838,27.059-4.5,2.314-10.557,3.932-15.179.961-6.4-4.2-8.774-12.949-9.929-20.014a61.3,61.3,0,0,1,2.717-29.349,46,46,0,0,1,7.354-12.927c1.826-2.164,7.665-10.66,10.734-6.834,2.5,4.32.114,13.3-1.465,17.759-3.554,9.931-10.172,17.44-20.454,20.6-9.4,2.955-19.061,4.149-28.671,5.953-9.565,1.676-19.066,3.563-28.57,5.576-9.4,2.086-19.076,3.745-28.1,7.033-4.691,1.877-8.475,4.116-4.12,9.3,8.107,9.2,26.71,16.848,38.95,15.023,11.417-1.558,14.152-11.9,13.516-21.913" transform="translate(-314.423 0.003)" fill="#efefef"/>
    </g>
  </g>
</svg>
