<svg id="menuknop" xmlns="http://www.w3.org/2000/svg" width="140" height="59" viewBox="0 0 140 59">
  <path id="Subtraction_3" data-name="Subtraction 3" d="M148.5,59h-81A29.508,29.508,0,0,1,56.017,2.318,29.316,29.316,0,0,1,67.5,0h81a29.508,29.508,0,0,1,11.483,56.682A29.315,29.315,0,0,1,148.5,59ZM131.46,21.864V32.832a7.56,7.56,0,0,0,.5,2.88,5.563,5.563,0,0,0,1.427,2.052A5.99,5.99,0,0,0,135.612,39a10.354,10.354,0,0,0,5.76,0,5.991,5.991,0,0,0,2.22-1.236,5.563,5.563,0,0,0,1.427-2.052,7.56,7.56,0,0,0,.5-2.88V21.864h-3v9.985c0,.574-.028,1.163-.084,1.751a4.03,4.03,0,0,1-.481,1.6,3.072,3.072,0,0,1-1.2,1.164,5.865,5.865,0,0,1-4.536,0,3.072,3.072,0,0,1-1.2-1.164,4.03,4.03,0,0,1-.481-1.6c-.056-.589-.084-1.178-.084-1.751V21.864ZM114.66,26.4h.072l7.8,12.6H125.7V21.864h-2.857V34.488H122.8l-7.824-12.624H111.8V39h2.856V26.4ZM94.4,21.864V39h12.5V36.408H97.4V31.392h8.64V28.944H97.4V24.456h9.336V21.864Zm-8.9,3.912h.048V39H88.4V21.864H84.228L79.62,35.28h-.049L74.844,21.864H70.62V39h2.856V25.776h.048L78.276,39h2.472L85.5,25.777Z" transform="translate(-38 0)"/>
</svg>
