<svg xmlns="http://www.w3.org/2000/svg" width="378.169" height="83.678" viewBox="0 0 378.169 83.678">
  <g id="Group_13" data-name="Group 13" transform="translate(0 -253.132)">
    <g id="Group_14" data-name="Group 14" transform="translate(0 -0.003)">
      <path id="Path_1" data-name="Path 1" d="M0,1051.66H19.751a21.387,21.387,0,0,1,7.39,1.1,13.1,13.1,0,0,1,4.765,2.9,10.658,10.658,0,0,1,2.59,4.109,14.29,14.29,0,0,1,.794,4.661,10.5,10.5,0,0,1-.69,3.8,9.824,9.824,0,0,1-1.968,3.177,11.338,11.338,0,0,1-6.941,3.522l.138.138a8.008,8.008,0,0,1,2.279.414,12.565,12.565,0,0,1,3.764,1.83,13.1,13.1,0,0,1,3.522,3.729,10.994,10.994,0,0,1,1.554,6.112A13.421,13.421,0,0,1,35.7,1093.1a12.207,12.207,0,0,1-3.487,4.316,15.5,15.5,0,0,1-5.421,2.659,25.852,25.852,0,0,1-7.044.9H0Zm19.751,22.376q6.283,0,9.392-2.8a9.422,9.422,0,0,0,3.108-7.355,9.068,9.068,0,0,0-1.036-4.524,8.565,8.565,0,0,0-2.762-2.969,11.561,11.561,0,0,0-3.971-1.623,22.473,22.473,0,0,0-4.731-.484H3.038v19.751Zm0,24.309q6.629,0,10.393-2.8t3.764-8.391a9.476,9.476,0,0,0-1.312-5.214,9.727,9.727,0,0,0-3.349-3.211,13.981,13.981,0,0,0-4.558-1.623,28.161,28.161,0,0,0-4.938-.449H3.038v21.685Z" transform="translate(0 -765.33)" fill="#efefef"/>
      <path id="Path_2" data-name="Path 2" d="M261.259,1051.66h20.58a26.893,26.893,0,0,1,6.077.656,14.309,14.309,0,0,1,4.972,2.141,10.238,10.238,0,0,1,3.349,3.9,13.379,13.379,0,0,1,1.209,6.008,12.817,12.817,0,0,1-2.8,8.391,12.222,12.222,0,0,1-7.769,4.247v.138a11.738,11.738,0,0,1,5.352,1.8,8.782,8.782,0,0,1,2.935,3.384,13.687,13.687,0,0,1,1.243,4.42,42.711,42.711,0,0,1,.276,4.834v2.832a22.664,22.664,0,0,0,.138,2.59,12.871,12.871,0,0,0,.449,2.245,5.041,5.041,0,0,0,.863,1.726h-3.384a8.963,8.963,0,0,1-1.071-4.04q-.1-2.313-.1-4.8t-.207-4.937a10.521,10.521,0,0,0-1.312-4.385,7.872,7.872,0,0,0-3.487-3.108,15.577,15.577,0,0,0-6.733-1.174H264.3v22.444h-3.039Zm20.58,24.24a18.266,18.266,0,0,0,5.007-.656,10.638,10.638,0,0,0,3.971-2.037,9.692,9.692,0,0,0,2.624-3.522,12.347,12.347,0,0,0,.967-5.11,10.04,10.04,0,0,0-1.036-4.731,9.13,9.13,0,0,0-2.762-3.211,11.363,11.363,0,0,0-4.005-1.8,20.175,20.175,0,0,0-4.765-.553H264.3V1075.9Z" transform="translate(-190.128 -765.33)" fill="#efefef"/>
      <path id="Path_3" data-name="Path 3" d="M523.312,1051.66h3.315l19.475,49.309h-3.246l-6.216-15.815H513.022l-6.284,15.815h-3.246Zm12.362,30.87-10.566-27.9h-.138l-10.98,27.9Z" transform="translate(-366.409 -765.33)" fill="#efefef"/>
      <path id="Path_4" data-name="Path 4" d="M787.422,1062.61a13.233,13.233,0,0,0-1.347-5.525,11.583,11.583,0,0,0-3.281-3.936,14.306,14.306,0,0,0-4.938-2.383,23.376,23.376,0,0,0-6.25-.794,22.547,22.547,0,0,0-4.455.483,14.105,14.105,0,0,0-4.42,1.692,10.027,10.027,0,0,0-3.349,3.246,9.191,9.191,0,0,0-1.312,5.076,7.649,7.649,0,0,0,1.45,4.834,10.551,10.551,0,0,0,3.8,3,24.959,24.959,0,0,0,5.386,1.83q3.038.691,6.146,1.312,3.176.621,6.181,1.485a21.223,21.223,0,0,1,5.387,2.348,11.622,11.622,0,0,1,3.833,3.868,11.311,11.311,0,0,1,1.451,5.974,11.926,11.926,0,0,1-1.658,6.491,14,14,0,0,1-4.178,4.282,17.353,17.353,0,0,1-5.594,2.383,25.714,25.714,0,0,1-5.9.725,34.1,34.1,0,0,1-8.149-.932,18.243,18.243,0,0,1-6.63-3.038,14.666,14.666,0,0,1-4.454-5.421,17.648,17.648,0,0,1-1.554-8.08h3.039a13.788,13.788,0,0,0,1.174,6.871,12.4,12.4,0,0,0,3.833,4.592,15.876,15.876,0,0,0,5.767,2.59,29.826,29.826,0,0,0,6.975.794,22.122,22.122,0,0,0,4.731-.552,14.579,14.579,0,0,0,4.627-1.865,11.446,11.446,0,0,0,3.522-3.453,9.573,9.573,0,0,0,1.415-5.387,8.34,8.34,0,0,0-1.45-5.076,10.65,10.65,0,0,0-3.833-3.177,24.722,24.722,0,0,0-5.387-1.934q-3-.725-6.181-1.347-3.108-.621-6.146-1.45a21.123,21.123,0,0,1-5.387-2.244,11.544,11.544,0,0,1-3.8-3.661,10.447,10.447,0,0,1-1.45-5.766,11.7,11.7,0,0,1,1.485-6.043,12.146,12.146,0,0,1,3.867-4.074,17.165,17.165,0,0,1,5.352-2.279,24.682,24.682,0,0,1,5.87-.725,28.859,28.859,0,0,1,7.217.863,17.2,17.2,0,0,1,5.87,2.693,13.473,13.473,0,0,1,4.04,4.73,16.749,16.749,0,0,1,1.727,6.975Z" transform="translate(-548.407 -762.192)" fill="#efefef"/>
      <path id="Path_5" data-name="Path 5" d="M1027.88,1062.61a13.231,13.231,0,0,0-1.347-5.525,11.58,11.58,0,0,0-3.28-3.936,14.307,14.307,0,0,0-4.938-2.383,23.376,23.376,0,0,0-6.25-.794,22.541,22.541,0,0,0-4.454.483,14.105,14.105,0,0,0-4.42,1.692,10.027,10.027,0,0,0-3.349,3.246,9.194,9.194,0,0,0-1.312,5.076,7.648,7.648,0,0,0,1.45,4.834,10.554,10.554,0,0,0,3.8,3,24.967,24.967,0,0,0,5.387,1.83q3.038.691,6.146,1.312,3.176.621,6.181,1.485a21.225,21.225,0,0,1,5.387,2.348,11.619,11.619,0,0,1,3.832,3.868,11.308,11.308,0,0,1,1.451,5.974,11.927,11.927,0,0,1-1.657,6.491,14,14,0,0,1-4.178,4.282,17.354,17.354,0,0,1-5.594,2.383,25.716,25.716,0,0,1-5.9.725,34.1,34.1,0,0,1-8.149-.932,18.243,18.243,0,0,1-6.63-3.038,14.665,14.665,0,0,1-4.455-5.421,17.648,17.648,0,0,1-1.554-8.08h3.039a13.791,13.791,0,0,0,1.174,6.871,12.394,12.394,0,0,0,3.833,4.592,15.875,15.875,0,0,0,5.766,2.59,29.829,29.829,0,0,0,6.975.794,22.123,22.123,0,0,0,4.731-.552,14.579,14.579,0,0,0,4.627-1.865,11.449,11.449,0,0,0,3.522-3.453,9.571,9.571,0,0,0,1.416-5.387,8.341,8.341,0,0,0-1.45-5.076,10.646,10.646,0,0,0-3.833-3.177,24.723,24.723,0,0,0-5.387-1.934q-3-.725-6.181-1.347-3.107-.621-6.146-1.45a21.123,21.123,0,0,1-5.387-2.244,11.543,11.543,0,0,1-3.8-3.661,10.445,10.445,0,0,1-1.45-5.766,11.7,11.7,0,0,1,1.485-6.043,12.149,12.149,0,0,1,3.868-4.074,17.162,17.162,0,0,1,5.352-2.279,24.683,24.683,0,0,1,5.87-.725,28.858,28.858,0,0,1,7.217.863,17.2,17.2,0,0,1,5.87,2.693,13.471,13.471,0,0,1,4.04,4.73,16.744,16.744,0,0,1,1.727,6.975Z" transform="translate(-723.397 -762.192)" fill="#efefef"/>
      <path id="Path_6" data-name="Path 6" d="M1252.3,1051.66h3.315l19.475,49.309h-3.246l-6.215-15.815h-23.619l-6.284,15.815h-3.246Zm12.362,30.87-10.567-27.9h-.138l-10.981,27.9Z" transform="translate(-896.919 -765.33)" fill="#efefef"/>
      <path id="Path_7" data-name="Path 7" d="M478.311,929.74v4.225h.032a2.014,2.014,0,0,1,1.044-.989,3.9,3.9,0,0,1,1.567-.309,3.688,3.688,0,0,1,1.654.348,3.367,3.367,0,0,1,1.171.941,4.164,4.164,0,0,1,.7,1.369,5.6,5.6,0,0,1,.237,1.646,5.775,5.775,0,0,1-.23,1.646,3.879,3.879,0,0,1-.7,1.353,3.284,3.284,0,0,1-1.171.91,3.8,3.8,0,0,1-1.638.332,4.076,4.076,0,0,1-.673-.063,3.738,3.738,0,0,1-.736-.206,2.858,2.858,0,0,1-.689-.388,2.157,2.157,0,0,1-.546-.609h-.032v1.092h-1.345v-11.3Zm4.834,6.021a3.016,3.016,0,0,0-.459-.973,2.248,2.248,0,0,0-.791-.68,2.4,2.4,0,0,0-1.132-.253,2.22,2.22,0,0,0-1.93.973,2.951,2.951,0,0,0-.435.989,4.795,4.795,0,0,0,.008,2.287,2.875,2.875,0,0,0,.451.989,2.309,2.309,0,0,0,.8.689,2.5,2.5,0,0,0,1.187.261,2.3,2.3,0,0,0,1.163-.269,2.162,2.162,0,0,0,.752-.712,3.106,3.106,0,0,0,.411-1.013,5.394,5.394,0,0,0,.127-1.171,4.181,4.181,0,0,0-.15-1.116" transform="translate(-347.105 -676.605)" fill="#efefef"/>
      <path id="Path_8" data-name="Path 8" d="M535.6,940.677V942.4h.032a3.642,3.642,0,0,1,1.2-1.472,3.022,3.022,0,0,1,1.8-.443v1.424a3.807,3.807,0,0,0-1.377.222,2.172,2.172,0,0,0-.918.648,2.681,2.681,0,0,0-.506,1.037,5.587,5.587,0,0,0-.158,1.4v3.64H534.33v-8.181Z" transform="translate(-388.851 -684.424)" fill="#efefef"/>
      <path id="Path_9" data-name="Path 9" d="M583.17,948.83a1.906,1.906,0,0,1-.965.206,1.158,1.158,0,0,1-.831-.293,1.273,1.273,0,0,1-.309-.958,3.221,3.221,0,0,1-1.29.958,4.455,4.455,0,0,1-2.643.166,2.443,2.443,0,0,1-.862-.4,1.894,1.894,0,0,1-.578-.7,2.368,2.368,0,0,1-.214-1.052,2.4,2.4,0,0,1,.237-1.139,2.074,2.074,0,0,1,.625-.72,2.871,2.871,0,0,1,.886-.419q.5-.142,1.021-.237.554-.111,1.052-.166a5.79,5.79,0,0,0,.878-.158,1.463,1.463,0,0,0,.6-.3.734.734,0,0,0,.222-.578,1.345,1.345,0,0,0-.166-.712,1.14,1.14,0,0,0-.427-.411,1.736,1.736,0,0,0-.585-.19,4.389,4.389,0,0,0-.641-.048,2.844,2.844,0,0,0-1.424.324,1.378,1.378,0,0,0-.617,1.227H575.8a2.9,2.9,0,0,1,.316-1.282,2.4,2.4,0,0,1,.76-.847,3.188,3.188,0,0,1,1.084-.467,5.721,5.721,0,0,1,1.306-.143,7.7,7.7,0,0,1,1.1.079,2.88,2.88,0,0,1,.989.324,1.9,1.9,0,0,1,.712.687,2.195,2.195,0,0,1,.269,1.152v4.2a3.105,3.105,0,0,0,.056.695q.055.221.372.221a1.621,1.621,0,0,0,.412-.063Zm-2.184-4.193a1.673,1.673,0,0,1-.665.276q-.412.087-.862.142t-.91.126a3.357,3.357,0,0,0-.823.229,1.491,1.491,0,0,0-.593.449,1.252,1.252,0,0,0-.229.795,1.084,1.084,0,0,0,.135.559,1.111,1.111,0,0,0,.348.37,1.469,1.469,0,0,0,.5.2,2.766,2.766,0,0,0,.6.063,3.2,3.2,0,0,0,1.139-.181,2.4,2.4,0,0,0,.776-.457,1.808,1.808,0,0,0,.443-.6,1.506,1.506,0,0,0,.142-.606Z" transform="translate(-418.797 -684.429)" fill="#efefef"/>
      <path id="Path_10" data-name="Path 10" d="M631.2,947.035a1.43,1.43,0,0,0,.5.491,2.231,2.231,0,0,0,.7.261,3.977,3.977,0,0,0,.8.079,4.927,4.927,0,0,0,.665-.048,2.43,2.43,0,0,0,.641-.174,1.2,1.2,0,0,0,.483-.372.992.992,0,0,0,.19-.625.9.9,0,0,0-.4-.791,3.377,3.377,0,0,0-.989-.435q-.593-.166-1.289-.3a6.665,6.665,0,0,1-1.29-.38,2.663,2.663,0,0,1-.989-.688,1.789,1.789,0,0,1-.4-1.234,1.96,1.96,0,0,1,.277-1.06,2.26,2.26,0,0,1,.712-.72,3.272,3.272,0,0,1,.981-.412,4.538,4.538,0,0,1,1.084-.135,6.454,6.454,0,0,1,1.282.119,2.963,2.963,0,0,1,1.036.411,2.131,2.131,0,0,1,.72.791,3.007,3.007,0,0,1,.316,1.242h-1.345a1.367,1.367,0,0,0-.206-.657,1.347,1.347,0,0,0-.443-.419,2.014,2.014,0,0,0-.594-.23,3.044,3.044,0,0,0-.657-.071,4,4,0,0,0-.609.048,2.056,2.056,0,0,0-.562.166,1.135,1.135,0,0,0-.412.317.8.8,0,0,0-.158.514.756.756,0,0,0,.245.577,1.951,1.951,0,0,0,.625.38,5.5,5.5,0,0,0,.854.253q.475.1.95.214a10.1,10.1,0,0,1,.989.269,3.23,3.23,0,0,1,.855.419,2.052,2.052,0,0,1,.6.657,1.93,1.93,0,0,1,.229.981,2.279,2.279,0,0,1-.308,1.234,2.408,2.408,0,0,1-.807.791,3.369,3.369,0,0,1-1.123.419,6.632,6.632,0,0,1-1.242.119,5.753,5.753,0,0,1-1.3-.143,3.181,3.181,0,0,1-1.092-.467,2.375,2.375,0,0,1-.759-.854,2.956,2.956,0,0,1-.317-1.29h1.345a1.513,1.513,0,0,0,.206.752" transform="translate(-458.216 -684.429)" fill="#efefef"/>
      <path id="Path_11" data-name="Path 11" d="M683.506,947.035a1.433,1.433,0,0,0,.5.491,2.233,2.233,0,0,0,.7.261,3.973,3.973,0,0,0,.8.079,4.936,4.936,0,0,0,.665-.048,2.432,2.432,0,0,0,.641-.174,1.2,1.2,0,0,0,.483-.372.993.993,0,0,0,.19-.625.9.9,0,0,0-.4-.791,3.383,3.383,0,0,0-.989-.435q-.593-.166-1.289-.3a6.66,6.66,0,0,1-1.29-.38,2.659,2.659,0,0,1-.989-.688,1.787,1.787,0,0,1-.4-1.234,1.96,1.96,0,0,1,.277-1.06,2.261,2.261,0,0,1,.712-.72,3.273,3.273,0,0,1,.981-.412,4.541,4.541,0,0,1,1.084-.135,6.45,6.45,0,0,1,1.282.119,2.964,2.964,0,0,1,1.037.411,2.134,2.134,0,0,1,.72.791,3,3,0,0,1,.316,1.242h-1.345a1.366,1.366,0,0,0-.206-.657,1.347,1.347,0,0,0-.443-.419,2.017,2.017,0,0,0-.593-.23,3.044,3.044,0,0,0-.657-.071,4.01,4.01,0,0,0-.609.048,2.056,2.056,0,0,0-.561.166,1.13,1.13,0,0,0-.412.317.8.8,0,0,0-.158.514.756.756,0,0,0,.245.577,1.951,1.951,0,0,0,.625.38,5.514,5.514,0,0,0,.855.253q.475.1.949.214a10.13,10.13,0,0,1,.989.269,3.233,3.233,0,0,1,.855.419,2.058,2.058,0,0,1,.6.657,1.933,1.933,0,0,1,.229.981,2.281,2.281,0,0,1-.308,1.234,2.41,2.41,0,0,1-.807.791,3.369,3.369,0,0,1-1.123.419,6.633,6.633,0,0,1-1.242.119,5.748,5.748,0,0,1-1.3-.143,3.178,3.178,0,0,1-1.092-.467,2.376,2.376,0,0,1-.76-.854,2.961,2.961,0,0,1-.316-1.29H683.3a1.513,1.513,0,0,0,.206.752" transform="translate(-496.283 -684.429)" fill="#efefef"/>
      <path id="Path_12" data-name="Path 12" d="M740.789,948.341a3.714,3.714,0,0,1-2.31.7,4.2,4.2,0,0,1-1.7-.317,3.347,3.347,0,0,1-1.21-.886,3.759,3.759,0,0,1-.736-1.361,6.534,6.534,0,0,1-.277-1.725,4.929,4.929,0,0,1,.285-1.709,4.088,4.088,0,0,1,.8-1.345,3.622,3.622,0,0,1,1.219-.886,3.714,3.714,0,0,1,1.543-.317,3.357,3.357,0,0,1,1.812.451,3.587,3.587,0,0,1,1.155,1.147,4.542,4.542,0,0,1,.6,1.519,6.516,6.516,0,0,1,.134,1.567h-6.124a3.252,3.252,0,0,0,.127,1.021,2.308,2.308,0,0,0,.459.854,2.259,2.259,0,0,0,.807.593,2.784,2.784,0,0,0,1.155.222,2.329,2.329,0,0,0,1.4-.4,1.915,1.915,0,0,0,.72-1.2h1.329a3.27,3.27,0,0,1-1.187,2.073m-.324-5.254a2.311,2.311,0,0,0-.491-.736,2.335,2.335,0,0,0-.728-.491,2.31,2.31,0,0,0-.926-.182,2.349,2.349,0,0,0-.941.182,2.18,2.18,0,0,0-.72.5,2.392,2.392,0,0,0-.475.736,2.806,2.806,0,0,0-.206.894h4.7a2.767,2.767,0,0,0-.214-.9" transform="translate(-534.562 -684.429)" fill="#efefef"/>
      <path id="Path_13" data-name="Path 13" d="M791.731,940.677V942.4h.032a3.639,3.639,0,0,1,1.2-1.472,3.022,3.022,0,0,1,1.8-.443v1.424a3.805,3.805,0,0,0-1.377.222,2.173,2.173,0,0,0-.918.648,2.689,2.689,0,0,0-.506,1.037,5.59,5.59,0,0,0-.158,1.4v3.64h-1.345v-8.181Z" transform="translate(-575.25 -684.424)" fill="#efefef"/>
      <path id="Path_14" data-name="Path 14" d="M833.532,929.74h1.345v1.646h-1.345Zm1.345,11.3h-1.345v-8.181h1.345Z" transform="translate(-606.591 -676.605)" fill="#efefef"/>
      <path id="Path_15" data-name="Path 15" d="M874,948.341a3.714,3.714,0,0,1-2.31.7,4.2,4.2,0,0,1-1.7-.317,3.348,3.348,0,0,1-1.21-.886,3.762,3.762,0,0,1-.736-1.361,6.534,6.534,0,0,1-.277-1.725,4.93,4.93,0,0,1,.285-1.709,4.086,4.086,0,0,1,.8-1.345,3.623,3.623,0,0,1,1.219-.886,3.714,3.714,0,0,1,1.543-.317,3.357,3.357,0,0,1,1.812.451,3.587,3.587,0,0,1,1.155,1.147,4.54,4.54,0,0,1,.6,1.519,6.516,6.516,0,0,1,.135,1.567h-6.124a3.253,3.253,0,0,0,.127,1.021,2.31,2.31,0,0,0,.459.854,2.26,2.26,0,0,0,.807.593,2.784,2.784,0,0,0,1.155.222,2.329,2.329,0,0,0,1.4-.4,1.914,1.914,0,0,0,.72-1.2h1.329A3.27,3.27,0,0,1,874,948.341m-.324-5.254a2.311,2.311,0,0,0-.491-.736,2.335,2.335,0,0,0-.728-.491,2.309,2.309,0,0,0-.926-.182,2.35,2.35,0,0,0-.941.182,2.179,2.179,0,0,0-.72.5,2.39,2.39,0,0,0-.475.736,2.808,2.808,0,0,0-.206.894h4.7a2.764,2.764,0,0,0-.214-.9" transform="translate(-631.503 -684.429)" fill="#efefef"/>
    </g>
  </g>
</svg>
